# xmcd
#
# Track frame offsets:
# 150
# 12452
# 24786
# 37340
# 51525
# 62888
# 74340
# 88627
# 99617
# 113743
# 138486
# 150445
# 162663
# 174706
# 187106
# 200677
# 212845
# 223710
# 238476
#
# Disc length: 3322 seconds
#
# Revision: 0
# Processed by: cddbd v1.5.1PL0 Copyright (c) Steve Scherf et al.
# Submitted via: plextools 2.18
#
DISCID=2a0cf813
DTITLE=Sister Rosetta Tharpe - Complete/Integrale (Fremeaux and Associes), Vol.3 (1947-1951), CD 1
DYEAR=1900
DGENRE=Gospel
TTITLE0=Sister Rosetta Tharpe with The Dependable Boys - Everybody's Gonna Have A Wonderful Time Up There
TTITLE1=Sister Rosetta Tharpe with The Dependable Boys - My Lord And I
TTITLE2=Sister Rosetta Tharpe and Marie Knight acc. Sam Price Trio - He Watches Me
TTITLE3=Sister Rosetta Tharpe and Marie Knight acc. Sam Price Trio - He's All I Need
TTITLE4=Sister Rosetta Tharpe with The Dependable Boys acc. Sam Price Trio - Down By The Riverside
TTITLE5=Sister Rosetta Tharpe with The Dependable Boys acc. Sam Price Trio - My Lord's Gonna Move This Wicked Race
TTITLE6=Sister Rosetta Tharpe acc. Sam Price Trio - Ain't No Room In Church For Liars
TTITLE7=Sister Rosetta Tharpe with The Dependable Boys acc. Sam Price Trio - Little Boy How Old Are You
TTITLE8=Sister Rosetta Tharpe with The Dependable Boys acc. Sam Price Trio - Going Back To Jesus
TTITLE9=Sister Rosetta Tharpe acc. Marie Knight and Sam Price Trio - Move On Up A Little Higher (Pt.1 and 2)
TTITLE10=Sister Rosetta Tharpe and her mother Katie Bell Nubin acc. Sam Price Trio - Ninety Nine And A Half Won't Do
TTITLE11=Sister Rosetta Tharpe and her mother Katie Bell Nubin acc. Sam Price Trio - Daniel In The Lion's Den
TTITLE12=Sister Rosetta Tharpe and The Rosette Gospel Singers acc. James Roots Quartet - Silent Night, Holy Night
TTITLE13=Sister Rosetta Tharpe and The Rosette Gospel Singers acc. James Roots Quartet - White Christmas
TTITLE14=Sister Rosetta Tharpe and The Rosette Gospel Singers acc. James Roots Quartet - He Arose From The Grave
TTITLE15=Katie Bell Rubin acc. Sister Rosetta Tharpe and James Roots Trio - Pressing Up The Upward Way
TTITLE16=Katie Bell Rubin acc. Sister Rosetta Tharpe and James Roots Trio - My Body Belongs To God
TTITLE17=Sister Rosetta Tharpe and The Rosette Gospel Singers acc. James Roots Quartet - Were You There When They Crucified The Lord?
TTITLE18=Sister Rosetta Tharpe and The Rosette Gospel Singers acc. James Roots Quartet - Bells Of St. Mary's
EXTD=Fremeaux and Associes (France) FA 1303, 2003
EXTT0=NYC, December 30, 1947
EXTT1=NYC, December 30, 1947
EXTT2=NYC, December 2, 1948
EXTT3=NYC, December 2, 1948
EXTT4=NYC, December 2, 1948
EXTT5=NYC, December 2, 1948
EXTT6=NYC, December 3, 1948
EXTT7=NYC, December 3, 1948
EXTT8=NYC, December 3, 1948
EXTT9=NYC, January 11, 1949
EXTT10=NYC, July 7, 1949
EXTT11=NYC, July 7, 1949
EXTT12=NYC, September 14, 1949
EXTT13=NYC, September 14, 1949
EXTT14=NYC, September 14, 1949
EXTT15=NYC, December 12, 1949
EXTT16=NYC, December 12, 1949
EXTT17=NYC, December 12, 1949
EXTT18=NYC, December 12, 1949
PLAYORDER=
